<svg width="14" height="14" viewBox="0 0 14 14" fill="none" xmlns="http://www.w3.org/2000/svg">
    <path d="M12.494 0H7.18042C7.07168 0 6.96731 0.0432626 6.8904 0.120174L0.440638 6.56972C-0.146879 7.15745 -0.146879 8.11361 0.440638 8.70113L5.30004 13.5604C5.58376 13.8441 5.96223 14.0004 6.36559 14.0005H6.36569C6.76916 14.0005 7.14762 13.8441 7.43145 13.5603L13.881 7.11066C13.9579 7.03375 14.0012 6.92939 14.0012 6.82065L14.0013 1.50703C14.0012 0.676072 13.325 0 12.494 0ZM13.1808 6.6508L6.8513 12.9803C6.72248 13.1092 6.54996 13.1801 6.36569 13.1801C6.18132 13.1801 6.00891 13.1092 5.88008 12.9804L1.02068 8.12109C0.752983 7.85339 0.752983 7.41756 1.02068 7.14976L7.35027 0.820387H12.494C12.8727 0.820387 13.1809 1.12846 13.1809 1.50714L13.1808 6.6508Z" fill="#868889"/>
    <path d="M10.3851 2.3252C10.0408 2.3252 9.71715 2.45936 9.4737 2.70281C9.23025 2.94615 9.09619 3.26982 9.09619 3.6141C9.09619 3.95839 9.23025 4.28206 9.4737 4.52551C9.71715 4.76895 10.0408 4.90301 10.3851 4.90301C10.7293 4.90301 11.0529 4.76895 11.2964 4.52551C11.5398 4.28206 11.6739 3.95839 11.6739 3.6141C11.6739 3.26982 11.5398 2.94615 11.2965 2.70281C11.0531 2.45936 10.7294 2.3252 10.3851 2.3252ZM10.7164 3.94536C10.6279 4.03391 10.5102 4.08262 10.3851 4.08262C10.2599 4.08262 10.1423 4.03391 10.0538 3.94536C9.96529 3.85691 9.91658 3.73919 9.91658 3.6141C9.91658 3.48902 9.96529 3.3713 10.0538 3.28285C10.1423 3.1943 10.26 3.14559 10.3851 3.14559C10.5102 3.14559 10.6278 3.1943 10.7164 3.28285C10.8049 3.3713 10.8536 3.48902 10.8536 3.6141C10.8536 3.73919 10.8048 3.85691 10.7164 3.94536Z" fill="#868889"/>
</svg>
