<svg width="17" height="14" viewBox="0 0 17 14" fill="none" xmlns="http://www.w3.org/2000/svg">
    <path d="M12.0173 11.0062C11.9981 10.7549 11.7985 10.5553 11.5472 10.5361C11.2662 10.5576 11.0558 10.8027 11.0772 11.0837C11.0963 11.3349 11.296 11.5345 11.5472 11.5537C11.8282 11.5323 12.0386 11.2871 12.0173 11.0062Z" fill="#868889"/>
    <path d="M13.2619 10.5696C13.2427 10.3184 13.0431 10.1188 12.7918 10.0996C12.5108 10.121 12.3004 10.3662 12.3218 10.6471C12.3409 10.8984 12.5406 11.098 12.7918 11.1172C13.0728 11.0958 13.2833 10.8506 13.2619 10.5696Z" fill="#868889"/>
    <path d="M16.9977 2.80874V2.78515C16.9912 2.76874 16.9833 2.75296 16.9741 2.73796L16.9564 2.71436L16.921 2.67602L16.9003 2.65832L16.862 2.64062H16.8473L10.4411 0.0215125C10.3701 -0.00717085 10.2908 -0.00717085 10.2198 0.0215125L3.82839 2.59638H3.81364L3.7753 2.61408L3.75465 2.63178L3.71926 2.67012L3.70156 2.69371C3.69231 2.70872 3.68442 2.7245 3.67796 2.74091V2.7645C3.67487 2.78898 3.67487 2.81376 3.67796 2.83824V5.1978H0.294945C0.132062 5.1978 0 5.32986 0 5.49274C0 5.65562 0.132062 5.78769 0.294945 5.78769V5.82603H3.64257V6.83474H2.49523C2.33235 6.83474 2.20029 6.9668 2.20029 7.12969C2.20029 7.29257 2.33235 7.42463 2.49523 7.42463H3.64257V8.43334H0.923178C0.760294 8.43334 0.628233 8.5654 0.628233 8.72829C0.628233 8.89117 0.760294 9.02323 0.923178 9.02323H3.64257V10.2561C3.64316 10.3752 3.71531 10.4822 3.82544 10.5275L10.2198 13.182C10.2518 13.1946 10.2858 13.2016 10.3201 13.2026C10.3545 13.2016 10.3884 13.1946 10.4204 13.182L16.8148 10.5275C16.9249 10.4822 16.9971 10.3752 16.9977 10.2561V2.88248C17.0008 2.858 17.0008 2.83322 16.9977 2.80874ZM10.329 0.620251L12.7534 1.59062L7.23795 3.92363L4.71617 2.87363L10.329 0.620251ZM10.0252 12.4711L4.23246 10.0585V9.02028H5.45648C5.61936 9.02028 5.75143 8.88822 5.75143 8.72534C5.75143 8.56245 5.61936 8.43039 5.45648 8.43039H4.23246V7.42168H7.03444C7.19732 7.42168 7.32938 7.28962 7.32938 7.12674C7.32938 6.96385 7.19732 6.83179 7.03444 6.83179H4.23246V5.82603H4.82235C4.98523 5.82603 5.11729 5.69397 5.11729 5.53108C5.11729 5.3682 4.98523 5.23614 4.82235 5.23614H4.23246V3.3131L6.48584 4.24512L10.0252 5.71985V12.4711ZM10.3319 5.22139L8.00186 4.24512L13.5232 1.90326L15.9388 2.87658L12.4201 4.3513L10.3319 5.22139ZM10.6239 12.4711V5.71985L12.2845 5.02968L16.4137 3.3072L16.4284 10.0585L10.6239 12.4711Z" fill="#868889"/>
</svg>
